<?xml version="1.0" encoding="UTF-8"?>
<svg width="132px" height="54px" viewBox="0 0 132 54" version="1.1" xmlns="http://www.w3.org/2000/svg" xmlns:xlink="http://www.w3.org/1999/xlink">
    <!-- Generator: Sketch 49.3 (51167) - http://www.bohemiancoding.com/sketch -->
    <title>logo</title>
    <desc>Created with Sketch.</desc>
    <defs></defs>
    <g id="Symbols" stroke="none" stroke-width="1" fill="none" fill-rule="evenodd">
        <g id="Component/L/Funnel-header-inloggen" transform="translate(-404.000000, -18.000000)" fill-rule="nonzero">
            <g id="Afbeelding-+-Rectangle-+-Rectangle-+-Over-Innovam-+-Group-6-+-Group-3-Copy-+-Group-+-Group-2-+-Group-3-+-Image/Logo-Copy-+-Group-4-Mask">
                <g id="Image/Logo" transform="translate(404.000000, 18.000000)">
                    <path d="M127.011024,4.70212105e-16 C127.322835,0.211764706 127.738583,0.211764706 128.154331,0.317647059 C128.570079,0.423529412 129.089764,0.529411765 129.505512,0.635294118 C130.440945,0.952941176 130.648819,1.69411765 129.92126,2.43529412 C129.401575,2.96470588 128.777953,3.49411765 128.258268,4.02352941 C125.451969,6.88235294 122.645669,9.74117647 120.359055,13.0235294 C120.255118,13.2352941 120.151181,13.3411765 120.047244,13.5529412 C119.423622,14.9294118 118.384252,15.3529412 116.929134,15.2470588 C115.474016,15.1411765 114.018898,15.1411765 112.667717,14.9294118 C111.628346,14.7176471 111.420472,14.4 111.940157,13.3411765 C112.771654,11.8588235 113.707087,10.4823529 114.850394,9.21176471 C117.344882,6.35294118 119.83937,3.6 122.749606,1.16470588 C123.269291,0.741176471 123.99685,0.423529412 124.516535,0 C125.451969,4.70212105e-16 126.179528,4.70212105e-16 127.011024,4.70212105e-16 Z" id="Shape" fill="#FED500"></path>
                    <path d="M4.61573037e-16,36.1058824 C1.14330709,36.2117647 2.28661417,36 3.42992126,36 C4.26141732,36 5.19685039,36 6.02834646,36 C6.34015748,36 6.5480315,36.1058824 6.5480315,36.5294118 C6.5480315,41.4 6.5480315,46.1647059 6.5480315,51.0352941 C6.5480315,51.4588235 6.44409449,51.5647059 6.02834646,51.5647059 C5.09291339,51.5647059 4.15748031,51.5647059 3.32598425,51.5647059 C2.80629921,51.5647059 2.7023622,51.4588235 2.7023622,50.9294118 C2.7023622,47.3294118 2.7023622,43.6235294 2.7023622,40.0235294 C2.7023622,39.3882353 2.49448819,39.1764706 1.87086614,39.1764706 C1.24724409,39.1764706 0.623622047,38.9647059 0,39.0705882 C4.61573037e-16,37.9058824 4.61573037e-16,37.0588235 4.61573037e-16,36.1058824 Z" id="Shape" fill="#FFFFFF"></path>
                    <path d="M78.3685039,39.3882353 C78.784252,38.7529412 78.992126,38.1176471 79.303937,37.4823529 C83.0456693,29.0117647 87.3070866,20.7529412 92.711811,13.1294118 C93.4393701,12.1764706 94.3748031,11.6470588 95.4141732,11.3294118 C96.7653543,11.0117647 98.2204724,10.9058824 99.5716535,11.0117647 C99.8834646,11.0117647 100.299213,11.0117647 100.507087,11.3294118 C100.714961,11.7529412 100.40315,11.9647059 100.195276,12.2823529 C95.2062992,19.8 90.6330709,27.5294118 86.8913386,35.8941176 C84.8125984,40.4470588 82.9417323,45.1058824 81.7984252,49.9764706 C81.5905512,50.6117647 81.2787402,51.1411765 80.6551181,51.3529412 C78.992126,51.9882353 77.3291339,52.6235294 75.4582677,52.9411765 C74.5228346,53.1529412 74.5228346,53.0470588 74.2110236,52.0941176 C73.0677165,47.7529412 71.7165354,43.5176471 70.2614173,39.2823529 C70.0535433,38.7529412 69.7417323,38.2235294 69.5338583,37.5882353 C69.1181102,36.6352941 69.3259843,36.1058824 70.2614173,35.6823529 C71.8204724,35.0470588 73.4834646,34.6235294 75.1464567,34.5176471 C76.4976378,34.4117647 76.6015748,34.5176471 77.1212598,35.7882353 C77.4330709,36.9529412 77.8488189,38.1176471 78.3685039,39.3882353 Z" id="Shape" fill="#FED500"></path>
                    <path d="M122.229921,38.6470588 C123.892913,35.8941176 126.283465,35.3647059 128.362205,35.7882353 C130.233071,36.1058824 131.272441,37.3764706 131.584252,39.3882353 C131.688189,39.9176471 131.688189,40.4470588 131.688189,40.9764706 C131.688189,44.2588235 131.688189,47.5411765 131.688189,50.7176471 C131.688189,51.2470588 131.584252,51.4588235 130.96063,51.3529412 C130.129134,51.3529412 129.193701,51.2470588 128.362205,51.3529412 C127.738583,51.3529412 127.738583,51.1411765 127.738583,50.6117647 C127.738583,47.6470588 127.738583,44.5764706 127.738583,41.6117647 C127.738583,41.2941176 127.738583,40.9764706 127.634646,40.6588235 C127.426772,39.0705882 126.283465,38.4352941 124.932283,39.1764706 C123.477165,39.9176471 122.749606,41.2941176 122.645669,42.8823529 C122.333858,45.2117647 122.541732,47.4352941 122.541732,49.7647059 C122.541732,51.2470588 122.541732,51.2470588 121.086614,51.2470588 C120.359055,51.2470588 119.319685,51.5647059 118.903937,51.1411765 C118.488189,50.7176471 118.8,49.6588235 118.8,48.9176471 C118.8,46.4823529 118.8,43.9411765 118.8,41.5058824 C118.8,41.1882353 118.8,40.8705882 118.696063,40.5529412 C118.384252,39.0705882 117.240945,38.4352941 115.889764,39.1764706 C114.330709,40.0235294 113.60315,41.6117647 113.60315,43.3058824 C113.499213,45.7411765 113.499213,48.0705882 113.60315,50.5058824 C113.60315,51.1411765 113.499213,51.3529412 112.771654,51.3529412 C111.940157,51.2470588 111.108661,51.3529412 110.277165,51.3529412 C109.75748,51.3529412 109.653543,51.2470588 109.653543,50.7176471 C109.653543,47.0117647 109.653543,43.4117647 109.653543,39.7058824 C109.653543,39.0705882 109.445669,38.9647059 108.925984,38.8588235 C106.951181,38.6470588 106.951181,38.6470588 107.055118,36.7411765 C107.055118,36.3176471 107.159055,36.2117647 107.574803,36.1058824 C109.341732,35.8941176 111.212598,35.8941176 112.979528,35.8941176 C113.291339,35.8941176 113.395276,36 113.395276,36.3176471 C113.395276,36.7411765 113.395276,37.1647059 113.291339,37.5882353 C113.187402,37.6941176 113.187402,38.0117647 113.395276,38.1176471 C113.60315,38.2235294 113.707087,38.0117647 113.811024,37.8 C114.954331,36.3176471 116.513386,35.5764706 118.384252,35.5764706 C120.151181,35.6823529 121.502362,36.6352941 122.229921,38.6470588 Z" id="Shape" fill="#FFFFFF"></path>
                    <path d="M37.7291339,38.5411765 C39.080315,36.5294118 40.7433071,35.5764706 42.9259843,35.6823529 C45.5244094,35.6823529 47.1874016,37.1647059 47.1874016,39.8117647 C47.2913386,43.5176471 47.1874016,47.2235294 47.1874016,50.9294118 C47.1874016,51.2470588 47.0834646,51.3529412 46.7716535,51.3529412 C45.8362205,51.3529412 44.9007874,51.3529412 43.9653543,51.3529412 C43.4456693,51.3529412 43.3417323,51.1411765 43.3417323,50.7176471 C43.3417323,47.7529412 43.3417323,44.7882353 43.3417323,41.8235294 C43.3417323,41.6117647 43.3417323,41.5058824 43.3417323,41.2941176 C43.3417323,40.4470588 43.2377953,39.6 42.4062992,39.1764706 C41.4708661,38.7529412 40.5354331,38.9647059 39.807874,39.7058824 C38.5606299,40.7647059 38.0409449,42.2470588 38.0409449,43.8352941 C38.0409449,46.1647059 38.0409449,48.3882353 38.0409449,50.7176471 C38.0409449,51.2470588 37.9370079,51.3529412 37.4173228,51.3529412 C36.5858268,51.3529412 35.7543307,51.3529412 34.9228346,51.3529412 C34.4031496,51.3529412 34.1952756,51.2470588 34.1952756,50.6117647 C34.1952756,47.0117647 34.1952756,43.4117647 34.1952756,39.7058824 C34.1952756,39.0705882 33.9874016,38.8588235 33.3637795,38.8588235 C33.0519685,38.8588235 32.7401575,38.7529412 32.4283465,38.7529412 C31.4929134,38.6470588 31.4929134,38.6470588 31.4929134,37.6941176 C31.4929134,36.2117647 31.4929134,36.2117647 32.9480315,36.1058824 C34.5070866,36 35.9622047,36 37.4173228,36 C37.8330709,36 37.9370079,36.1058824 37.8330709,36.5294118 C37.8330709,37.0588235 37.8330709,37.6941176 37.7291339,38.5411765 Z" id="Shape" fill="#FFFFFF"></path>
                    <path d="M90.6330709,39.9176471 C90.5291339,38.8588235 90.4251969,37.9058824 90.3212598,36.9529412 C90.3212598,36.6352941 90.4251969,36.5294118 90.6330709,36.4235294 C93.1275591,35.6823529 95.5181102,35.3647059 98.1165354,35.7882353 C100.714961,36.3176471 101.858268,37.8 101.858268,40.6588235 C101.858268,42.9882353 101.858268,45.3176471 101.858268,47.6470588 C101.858268,48.1764706 101.962205,48.3882353 102.48189,48.3882353 C103.001575,48.3882353 103.625197,48.4941176 104.144882,48.6 C104.456693,48.6 104.56063,48.7058824 104.56063,49.0235294 C104.56063,49.2352941 104.56063,49.5529412 104.56063,49.7647059 C104.56063,51.1411765 104.56063,51.1411765 103.209449,51.2470588 C101.858268,51.3529412 100.40315,51.3529412 99.0519685,51.4588235 C98.4283465,51.4588235 98.3244094,51.2470588 98.3244094,50.7176471 C98.3244094,50.1882353 98.3244094,49.7647059 98.3244094,49.2352941 C98.1165354,49.2352941 98.0125984,49.5529412 97.9086614,49.6588235 C96.4535433,51.5647059 93.2314961,52.3058824 91.1527559,51.1411765 C88.9700787,49.8705882 88.6582677,46.4823529 90.5291339,44.4705882 C91.880315,42.9882353 93.7511811,42.4588235 95.6220472,42.1411765 C96.2456693,42.0352941 96.9732283,42.0352941 97.5968504,42.0352941 C97.8047244,42.0352941 98.0125984,42.0352941 98.0125984,41.7176471 C98.2204724,40.1294118 97.3889764,38.9647059 95.8299213,38.8588235 C94.2708661,38.7529412 92.711811,39.0705882 91.2566929,39.7058824 C91.0488189,39.7058824 90.8409449,39.8117647 90.6330709,39.9176471 Z M97.3889764,44.5764706 C95.8299213,44.6823529 94.7905512,44.7882353 93.8551181,45.4235294 C93.1275591,45.9529412 92.919685,46.6941176 93.1275591,47.4352941 C93.3354331,48.1764706 93.9590551,48.4941176 94.7905512,48.4941176 C96.2456693,48.4941176 97.4929134,47.3294118 97.9086614,45.7411765 C98.2204724,44.5764706 98.2204724,44.4705882 97.3889764,44.5764706 Z" id="Shape" fill="#FFFFFF"></path>
                    <path d="M52.0724409,44.0470588 C51.9685039,37.1647059 57.8929134,34.3058824 63.0897638,36.3176471 C65.1685039,37.1647059 66.207874,38.9647059 66.623622,41.1882353 C67.0393701,43.4117647 66.9354331,45.5294118 65.896063,47.5411765 C64.5448819,50.4 61.5307087,51.9882353 58.3086614,51.6705882 C57.0614173,51.5647059 55.9181102,51.3529412 54.8787402,50.6117647 C53.111811,49.4470588 52.384252,47.5411765 52.176378,45.5294118 C52.176378,45 52.176378,44.5764706 52.0724409,44.0470588 Z M62.8818898,43.6235294 C62.8818898,42.9882353 62.7779528,42.4588235 62.6740157,41.9294118 C62.3622047,40.2352941 61.4267717,39.2823529 59.9716535,39.1764706 C58.3086614,39.0705882 57.0614173,39.8117647 56.4377953,41.4 C55.8141732,42.9882353 55.9181102,44.6823529 56.4377953,46.2705882 C56.8535433,47.6470588 57.8929134,48.2823529 59.2440945,48.3882353 C60.4913386,48.4941176 61.5307087,47.8588235 62.1543307,46.6941176 C62.6740157,45.6352941 62.7779528,44.5764706 62.8818898,43.6235294 Z" id="Shape" fill="#FFFFFF"></path>
                    <path d="M17.5653543,38.5411765 C19.2283465,36 21.3070866,35.2588235 24.0094488,35.7882353 C25.984252,36.2117647 27.1275591,37.5882353 27.1275591,39.8117647 C27.2314961,43.5176471 27.1275591,47.2235294 27.1275591,50.9294118 C27.1275591,51.3529412 27.023622,51.4588235 26.607874,51.4588235 C25.6724409,51.4588235 24.7370079,51.4588235 23.9055118,51.4588235 C23.3858268,51.4588235 23.2818898,51.2470588 23.2818898,50.7176471 C23.2818898,47.8588235 23.2818898,44.8941176 23.2818898,42.0352941 C23.2818898,41.6117647 23.2818898,41.0823529 23.1779528,40.6588235 C22.9700787,39.4941176 22.2425197,38.8588235 20.9952756,39.0705882 C20.0598425,39.2823529 19.4362205,39.8117647 18.9165354,40.5529412 C18.1889764,41.6117647 17.8771654,42.8823529 17.8771654,44.1529412 C17.8771654,46.3764706 17.8771654,48.4941176 17.8771654,50.7176471 C17.8771654,51.3529412 17.6692913,51.5647059 17.0456693,51.4588235 C16.2141732,51.3529412 15.3826772,51.4588235 14.5511811,51.4588235 C14.0314961,51.4588235 13.9275591,51.2470588 13.9275591,50.8235294 C13.9275591,47.2235294 13.9275591,43.6235294 13.9275591,40.0235294 C13.9275591,39.2823529 13.823622,38.9647059 13.096063,38.9647059 C12.888189,38.9647059 12.680315,38.8588235 12.4724409,38.8588235 C11.4330709,38.6470588 11.4330709,38.6470588 11.4330709,37.4823529 C11.4330709,36.2117647 11.4330709,36.2117647 12.680315,36.1058824 C14.1354331,36 15.6944882,36 17.1496063,36 C17.6692913,36 17.7732283,36.2117647 17.7732283,36.6352941 C17.6692913,37.1647059 17.6692913,37.8 17.5653543,38.5411765 Z" id="Shape" fill="#FFFFFF"></path>
                    <path d="M101.650394,20.0117647 C100.922835,20.0117647 100.195276,20.0117647 99.4677165,20.0117647 C98.5322835,19.9058824 98.2204724,19.4823529 98.4283465,18.5294118 C98.5322835,18.2117647 98.5322835,18 98.7401575,17.6823529 C101.026772,13.4470588 103.729134,9.63529412 107.159055,6.24705882 C107.470866,5.92941176 107.782677,5.82352941 108.198425,5.82352941 C109.75748,5.92941176 111.212598,6.14117647 112.667717,6.56470588 C112.875591,6.67058824 113.083465,6.77647059 113.291339,6.88235294 C114.018898,7.30588235 114.122835,7.72941176 113.60315,8.36470588 C112.251969,9.95294118 110.79685,11.5411765 109.549606,13.3411765 C108.406299,14.8235294 107.366929,16.4117647 106.535433,18.1058824 C105.807874,19.4823529 104.768504,20.1176471 103.313386,20.0117647 C102.793701,19.9058824 102.274016,20.0117647 101.650394,20.0117647 C101.650394,20.0117647 101.650394,20.0117647 101.650394,20.0117647 Z" id="Shape" fill="#FED500"></path>
                    <path d="M2.18267717,31.6588235 C2.18267717,30.3882353 3.32598425,29.2235294 4.57322835,29.3294118 C5.92440945,29.3294118 6.96377953,30.3882353 6.96377953,31.7647059 C6.96377953,33.1411765 5.82047244,34.2 4.46929134,34.2 C3.22204724,33.9882353 2.18267717,32.9294118 2.18267717,31.6588235 Z" id="Shape" fill="#FFFFFF"></path>
                </g>
            </g>
        </g>
    </g>
</svg>