<svg xmlns="http://www.w3.org/2000/svg"
    xmlns:xlink="http://www.w3.org/1999/xlink" xml:space="preserve" viewBox="1500 2100 2345100 2365700">
    <defs>
        <style type="text/css"><![CDATA[    .fil6 {fill:black}    .fil3 {fill:#002596}    .fil4 {fill:#8B2346}    .fil5 {fill:#CC092F}    .fil0 {fill:#DEB500}    .fil2 {fill:#FFD200}    .fil1 {fill:white}   ]]></style>
    </defs>
    <g id="Capa_x0020_1">
        <metadata id="CorelCorpID_0Corel-Layer"></metadata>
        <g id="_1274195055120">
            <path class="fil0" d="M1536500 34500l11800 8900c129600,85400 232700,100200 391800,100200 56000,0 114900,-11800 173800,-29500l14700 -5900 76600 106100 -8800 11800c-279900,371200 -61900,771800 91300,933900l14800 14700 -14800 14700c-20600,20600 -55900,56000 -82500,85500l-8800 8800 0 11800 0 2900c0,3000 0,5900 0,11800l0 3000c11800,247400 -50100,450700 -191500,603900 -147300,162000 -383000,262200 -659900,276900l-11800 0 -8800 5900c-70700,64800 -141500,117900 -141500,117900l-11700 8800 -11800 -8800c-3000,-3000 -73700,-56000 -144400,-117900l-8800 -5900 -11800 0c-276900,-14700 -509700,-114900 -659900,-276900 -138500,-153200 -203300,-356500 -191500,-603900l0 -3000c0,-5900 0,-8800 0,-11800l0 0 0 0 0 -2900 0 -11800 -8900 -8800c-23500,-26600 -61800,-61900 -82500,-85500l-14700 -14700 14700 -14700c153300,-159100 371300,-559800 91400,-933900l-8900 -11800 76600 -106100 14800 5900c58900,20600 117800,29500 173800,29500 159100,0 262200,-14800 391800,-100200l11800 -8900 11800 8900c114900,79500 223900,114900 347600,114900 123800,0 232800,-38300 347700,-114900l26500 -8900z"></path>
            <g>
                <path class="fil1" d="M325600 950800c88400,-200400 120800,-459600 -26500,-710000 35300,5900 76600,11800 114900,11800 150200,0 268100,-14800 403600,-88400 106100,64800 223900,103100 359400,103100 138500,0 256300,-41300 362400,-103100 132600,76600 253400,88400 403600,88400 38300,0 76600,-3000 114900,-11800 -147300,253300 -114900,509600 -26500,712900l-1705800 0 0 -2900zm0 0l0 0 0 0z"></path>
            </g>
            <path class="fil2" d="M2028500 950800c-88400,-200400 -120800,-459600 26500,-713000 -38300,5900 -76600,11800 -114900,11800 -150300,0 -268100,-14700 -403600,-88400 -106100,64900 -224000,103100 -362400,103100 0,0 -3000,0 -3000,0l0 686500 857400 0z"></path>
            <path class="fil3" d="M1842900 1923000c167900,-123700 268100,-318200 253300,-604000 -2900,-17600 -2900,-17600 -2900,-32400l-247500 0 0 636400 -2900 0z"></path>
            <path class="fil4" d="M1577700 2046700c100200,-26500 188600,-67700 265200,-123700l0 -636400 -265200 0 0 760100z"></path>
            <path class="fil4" d="M514200 1923000c76600,56000 164900,97200 265100,123700l0 -760100 -265100 0 0 636400z"></path>
            <path class="fil3" d="M260800 1319000c-14700,285800 85400,480300 253400,604000l0 -636400 -247500 0c-3000,14800 -3000,14800 -5900,32400z"></path>
            <path class="fil4" d="M1180000 1425100c47100,0 94300,14700 132600,38300l0 -179700 -265200 0 0 179700c35400,-23600 82500,-38300 132600,-38300z"></path>
            <path class="fil4" d="M1180000 1925900c-50100,0 -94300,-14700 -132600,-38300l0 197400c5900,0 8800,0 14700,0 88400,0 168000,0 238700,0 5900,0 8800,0 14700,0l0 -197400c-44200,23600 -88400,38300 -135500,38300z"></path>
            <path class="fil3" d="M1309600 1283700l0 179700c70700,44200 117800,123700 117800,212100 0,88400 -47100,168000 -117800,212100l0 197400c94300,-5900 182700,-17700 265200,-41200l0 -760100 -265200 0z"></path>
            <path class="fil3" d="M929600 1675500c0,-88400 47100,-167900 117800,-212100l0 -179700 -265100 0 0 760100c82400,23500 170800,35300 265100,41200l0 -197400c-73700,-44200 -117800,-123700 -117800,-212100z"></path>
            <path class="fil5" d="M387500 464700c17700,88400 17700,170800 5900,253300l259200 0 0 232800 253400 0 0 -232800 271000 0 0 -253300 -271000 0 0 -256300c-29500,-14800 -58900,-29500 -88400,-47200 -56000,32400 -111900,53100 -165000,64800l0 238700 -265100 0z"></path>
            <path class="fil5" d="M1719100 950800l0 -718900c-29400,-5900 -61800,-14700 -91300,-26500l0 748300 91300 0 0 -2900z"></path>
            <path class="fil5" d="M1356700 950800l0 -710000c-29400,8800 -58900,14700 -91300,17600l0 692400 91300 0z"></path>
            <path class="fil5" d="M1901800 950800l0 -701200c-32400,0 -61900,-2900 -91400,-5900l0 707100 91400 0z"></path>
            <path class="fil5" d="M1539400 950800l0 -789600c-29500,17700 -58900,32400 -91300,47200l0 742400 91300 0z"></path>
            <path class="fil6" d="M2346600 1171700l-35300 -35300c-147300,-153200 -356500,-539200 -91400,-892700l20700 -26500 -100200 -141400 -35400 11800c-53000,17700 -111900,29400 -164900,29400 -153200,0 -253400,-14700 -377100,-97200l-29500 -17700 -29400 20700c-109100,76600 -215100,111900 -330000,111900 -117900,0 -221000,-35300 -330000,-111900l-29400 -20700 -29500 17700c-123700,82500 -223900,97200 -377100,97200 -53000,0 -109000,-8800 -165000,-29400l-35300 -11800 -100200 141400 20600 26500c268100,356500 59000,739500 -91300,892700l-35400 35300 35400 35400c17700,17700 53000,53000 79500,82500 0,2900 0,2900 0,5900 0,2900 0,5900 0,11800l0 2900c-14700,256300 53100,468400 197400,627500 153200,170900 394800,271100 680600,285800 70700,64800 141400,117800 144300,120800l29500 23500 29500 -23500c2900,-3000 73600,-56000 144300,-120800 285800,-14700 524400,-117900 680600,-285800 144300,-159100 212100,-371200 197300,-627500l0 -2900c0,-5900 0,-8900 0,-11800 0,0 0,-3000 0,-5900 26600,-29500 61900,-64800 79600,-82500l47100 -35400zm-167900 100200c3000,26500 0,23600 3000,41300 29400,571500 -368300,839600 -848500,860200 -73700,67800 -153200,129600 -153200,129600 0,0 -82500,-58900 -156200,-129600 -480200,-20600 -877900,-288700 -848500,-860200 3000,-14800 0,-14800 3000,-41300 -26500,-29400 -73700,-76600 -97200,-100200 173800,-179700 374100,-589200 94200,-960400l59000 -79500c55900,20600 117800,32400 179700,32400 159100,0 271000,-14800 403600,-106100 106100,73700 221000,120800 359400,120800 138500,0 253400,-47100 359500,-120800 135500,88400 244500,106100 403600,106100 61800,0 123700,-11800 179700,-32400l58900 79500c-279900,371200 -79500,780700 94300,960400 -20600,23600 -67800,70700 -94300,100200z"></path>
            <path class="fil6" d="M257800 1283700c0,8800 0,11800 -2900,17700 0,2900 0,8800 -2900,14700 -11800,221000 44200,397700 162000,527400 135500,150200 359400,235600 642200,247400l11800 0c47200,0 91400,0 132600,0 32400,0 64800,0 94300,0 282800,-11800 503800,-97200 642200,-247500 120800,-129600 173900,-309300 162100,-530200 0,-8900 0,-11800 -3000,-14800 0,-5900 0,-8800 -2900,-17700l0 -5900 -1838400 0 2900 8900zm11800 35300c0,-5800 0,-11700 3000,-14700 0,-2900 0,-5900 2900,-11800l1808900 0c0,5900 0,8900 3000,11800 0,3000 0,8900 2900,14700 11800,215100 -41200,388900 -159100,518600 -135500,147300 -353500,229800 -630400,241500 -67800,0 -141500,0 -226900,0l-11800 0c-279900,-11700 -497900,-94200 -630400,-241500 -120800,-129700 -173900,-303500 -162100,-518600z"></path>
            <g>
                <path class="fil6" d="M319700 947800l-5900 11800 1726400 0 -5900 -11800c-73600,-170800 -132500,-433000 26600,-704100l8800 -14700 -17700 2900c-38300,5900 -76600,11800 -114900,11800 -153200,0 -268100,-14700 -397700,-88400l-2900 -2900 -3000 2900c-114900,67800 -232700,103100 -356500,103100 -126700,0 -241600,-32400 -356500,-103100l-2900 -2900 -2900 2900c-129700,73700 -244600,88400 -397800,88400 -35300,0 -73600,-2900 -111900,-11800l-17700 -2900 8800 14700c156200,271100 97300,533300 23600,704100l0 0zm863200 -674600c126700,0 241600,-35400 356500,-103100 132600,73600 247500,88300 403600,88300 32400,0 67800,-2900 100200,-8800 -147300,265200 -97200,521500 -23600,692300l-836700 0 0 -668700zm-869100 -20600c35400,5800 67800,8800 100200,8800 156100,0 271000,-14700 403600,-88400 112000,67800 226900,100200 350600,103100l0 668800 -827900 0c70700,-173800 120800,-427200 -26500,-692300z"></path>
            </g>
            <polygon class="fil6" points="959000,1050900 959000,1000900 788200,1000900 788200,1236600 841200,1236600 841200,1139300 911900,1139300 911900,1089200 841200,1089200 841200,1050900 "></polygon>
            <path class="fil6" d="M1159400 1048000c17600,0 32400,8800 41200,23600l0 2900 47100 -20600 0 -3000c-17600,-35300 -47100,-53000 -88300,-53000 -61900,0 -106100,50100 -106100,120800 0,73700 41200,120800 103100,120800 41300,0 70700,-17700 88400,-53000l0 -3000 -44200 -26500 0 3000c-11800,20600 -23600,29400 -44200,29400 -32400,0 -53000,-29400 -53000,-70700 5900,-44200 23600,-70700 56000,-70700z"></path>
            <g>
                <path class="fil6" d="M1557100 1065700c0,-41300 -29500,-64800 -76600,-64800l-109000 0 0 235700 109000 0c53000,0 85400,-29500 85400,-76600 0,-23600 -11800,-41300 -29400,-50100 11700,-11800 20600,-26500 20600,-44200l0 0zm-135500 -17700l55900 0c23600,0 26600,11800 26600,20600 0,11800 -8900,20600 -23600,20600l-58900 0 0 -41200zm58900 141400l-58900 0 0 -56000 58900 0c20600,0 29400,8900 29400,26600 3000,17600 -8800,29400 -29400,29400z"></path>
            </g>
            <g>
                <path class="fil6" d="M1177000 1931800c141400,0 256300,-114900 256300,-256300 0,-141400 -114900,-256300 -256300,-256300 -141400,0 -256300,114900 -256300,256300 0,141400 114900,256300 256300,256300l0 0zm0 -17600c-50000,0 -97200,-14800 -135500,-41300 50100,-2900 117800,-14700 159100,-41200 41200,-23600 82500,-53100 91300,-94300 29500,-14700 85500,-8800 94300,50100 -38300,76600 -117800,126700 -209200,126700l0 0zm-117800 -185700c11800,8900 26500,11800 44200,14800 32400,2900 79500,-29500 82500,-67800 47100,-32400 82500,-2900 91300,23600 20600,50100 -23600,85400 -79500,120800 -44200,26500 -120800,38300 -170900,38300 -26500,-20700 -47100,-50100 -64800,-79600 2900,0 2900,0 5900,0 38300,3000 70700,-17600 91300,-50100l0 0zm-38300 -120700c0,-47200 11800,-88400 23600,-132600 32400,-20600 70700,-35400 111900,-38300 -26500,29400 -20600,73600 5900,97200 -5900,5900 -11800,11800 -17700,20600 -20600,32400 -23500,91400 23600,126700 -3000,29500 -41300,56000 -67800,53000 -53000,-11700 -79500,-61800 -79500,-126600l0 0zm274000 114900c0,-8900 -3000,-17700 -5900,-26600 -11800,-29400 -56000,-67700 -112000,-29400 -41200,-29500 -38300,-76600 -20600,-106100 26500,-44200 91300,-26500 150300,5900 47100,26500 97200,82500 109000,129600 -3000,26600 -8900,50100 -17700,73700 -17700,-50100 -70700,-58900 -103100,-47100l0 0zm17600 -168000c-41200,-23500 -97200,-44200 -135500,-29400 -29400,-17700 -35300,-64800 3000,-91400 126700,0 229800,100200 238600,226900 -23600,-44200 -64800,-85400 -106100,-106100l0 0zm-285700 -67700c-5900,17700 -8900,32400 -11800,50100 -11800,55900 -11800,141400 32400,182600 -14700,29500 -44200,44200 -79500,44200 -3000,0 -8900,0 -11800,0 -11800,-26500 -17700,-58900 -17700,-91300 -2900,-73700 32400,-141400 88400,-185600z"></path>
            </g>
        </g>
    </g>
</svg>